<svg xmlns="http://www.w3.org/2000/svg" viewBox="0 0 520 520" width="512" height="512" fill="none">
  <!-- Dark background -->
  <rect width="520" height="520" rx="64" fill="#1A1D23" />
  <!-- Banjo, centered: original 200x520 content translated right by 160 -->
  <g transform="translate(160, 0)">
    <!-- Banjo head (drum) -->
    <circle cx="100" cy="100" r="85" stroke="#D4A04A" stroke-width="2.5" />
    <circle cx="100" cy="100" r="78" stroke="#D4A04A" stroke-width="1" />
    <circle cx="100" cy="100" r="72" stroke="#D4A04A" stroke-width="0.5" stroke-dasharray="4 3" />
    <!-- Tension hooks around rim -->
    <line x1="100.00" y1="22.00" x2="100.00" y2="15.00" stroke="#D4A04A" stroke-width="1.5" />
    <line x1="129.85" y1="27.94" x2="132.53" y2="21.47" stroke="#D4A04A" stroke-width="1.5" />
    <line x1="155.15" y1="44.85" x2="160.10" y2="39.90" stroke="#D4A04A" stroke-width="1.5" />
    <line x1="172.06" y1="70.15" x2="178.53" y2="67.47" stroke="#D4A04A" stroke-width="1.5" />
    <line x1="178.00" y1="100.00" x2="185.00" y2="100.00" stroke="#D4A04A" stroke-width="1.5" />
    <line x1="172.06" y1="129.85" x2="178.53" y2="132.53" stroke="#D4A04A" stroke-width="1.5" />
    <line x1="155.15" y1="155.15" x2="160.10" y2="160.10" stroke="#D4A04A" stroke-width="1.5" />
    <line x1="129.85" y1="172.06" x2="132.53" y2="178.53" stroke="#D4A04A" stroke-width="1.5" />
    <line x1="100.00" y1="178.00" x2="100.00" y2="185.00" stroke="#D4A04A" stroke-width="1.5" />
    <line x1="70.15" y1="172.06" x2="67.47" y2="178.53" stroke="#D4A04A" stroke-width="1.5" />
    <line x1="44.85" y1="155.15" x2="39.90" y2="160.10" stroke="#D4A04A" stroke-width="1.5" />
    <line x1="27.94" y1="129.85" x2="21.47" y2="132.53" stroke="#D4A04A" stroke-width="1.5" />
    <line x1="22.00" y1="100.00" x2="15.00" y2="100.00" stroke="#D4A04A" stroke-width="1.5" />
    <line x1="27.94" y1="70.15" x2="21.47" y2="67.47" stroke="#D4A04A" stroke-width="1.5" />
    <line x1="44.85" y1="44.85" x2="39.90" y2="39.90" stroke="#D4A04A" stroke-width="1.5" />
    <line x1="70.15" y1="27.94" x2="67.47" y2="21.47" stroke="#D4A04A" stroke-width="1.5" />
    <!-- Bridge -->
    <rect x="75" y="120" width="50" height="5" rx="1.5" stroke="#D4A04A" stroke-width="1.2" />
    <!-- Tailpiece -->
    <path d="M85 178 L100 190 L115 178" stroke="#D4A04A" stroke-width="1.5" fill="none" />
    <line x1="100" y1="185" x2="100" y2="195" stroke="#D4A04A" stroke-width="1" />
    <!-- Strings on head -->
    <line x1="88" y1="30" x2="88" y2="178" stroke="#D4A04A" stroke-width="0.5" />
    <line x1="94" y1="22" x2="94" y2="178" stroke="#D4A04A" stroke-width="0.5" />
    <line x1="100" y1="18" x2="100" y2="178" stroke="#D4A04A" stroke-width="0.5" />
    <line x1="106" y1="22" x2="106" y2="178" stroke="#D4A04A" stroke-width="0.5" />
    <line x1="112" y1="30" x2="112" y2="178" stroke="#D4A04A" stroke-width="0.5" />
    <!-- Neck -->
    <rect x="88" y="185" width="24" height="260" rx="3" stroke="#D4A04A" stroke-width="2" />
    <!-- Frets -->
    <line x1="88" y1="195" x2="112" y2="195" stroke="#D4A04A" stroke-width="1" />
    <line x1="88" y1="233" x2="112" y2="233" stroke="#D4A04A" stroke-width="1" />
    <line x1="88" y1="265" x2="112" y2="265" stroke="#D4A04A" stroke-width="1" />
    <line x1="88" y1="293" x2="112" y2="293" stroke="#D4A04A" stroke-width="1" />
    <line x1="88" y1="317" x2="112" y2="317" stroke="#D4A04A" stroke-width="1" />
    <line x1="88" y1="338" x2="112" y2="338" stroke="#D4A04A" stroke-width="1" />
    <line x1="88" y1="356" x2="112" y2="356" stroke="#D4A04A" stroke-width="1" />
    <line x1="88" y1="372" x2="112" y2="372" stroke="#D4A04A" stroke-width="1" />
    <!-- Fret dots -->
    <circle cx="100" cy="252" r="2.5" fill="#D4A04A" opacity="0.5" />
    <circle cx="100" cy="308" r="2.5" fill="#D4A04A" opacity="0.5" />
    <circle cx="100" cy="355" r="2.5" fill="#D4A04A" opacity="0.5" />
    <!-- 5th string peg (short string - Gibson style) -->
    <circle cx="83" cy="250" r="4" stroke="#D4A04A" stroke-width="1.2" />
    <line x1="87" y1="250" x2="88" y2="250" stroke="#D4A04A" stroke-width="0.8" />
    <!-- Peghead -->
    <path d="M86 445 L86 490 Q86 505 100 505 Q114 505 114 490 L114 445" stroke="#D4A04A" stroke-width="2" fill="none" />
    <!-- Tuning pegs -->
    <circle cx="80" cy="460" r="4" stroke="#D4A04A" stroke-width="1" />
    <circle cx="80" cy="478" r="4" stroke="#D4A04A" stroke-width="1" />
    <circle cx="120" cy="460" r="4" stroke="#D4A04A" stroke-width="1" />
    <circle cx="120" cy="478" r="4" stroke="#D4A04A" stroke-width="1" />
    <!-- Decorative text -->
    <text x="100" y="498" text-anchor="middle" font-size="7" font-family="Georgia, serif" fill="#D4A04A" opacity="0.7">BANJO BUDDY</text>
  </g>
</svg>
